<?xml version="1.0" standalone="no"?><!DOCTYPE svg PUBLIC "-//W3C//DTD SVG 1.1//EN" "http://www.w3.org/Graphics/SVG/1.1/DTD/svg11.dtd"><svg t="1602645967854" class="icon" viewBox="0 0 1024 1024" version="1.1" xmlns="http://www.w3.org/2000/svg" p-id="3054" xmlns:xlink="http://www.w3.org/1999/xlink" width="64" height="64"><defs><style type="text/css"></style></defs><path d="M822.98 827.077c2.718-16.542 4.097-33.516 4.097-50.806V512a315.077 315.077 0 1 0-630.154 0v264.27c0 17.29 1.379 34.265 4.096 50.807h621.962zM39.385 866.462h945.23V1024H39.385V866.462zM472.615 0h78.77v118.154h-78.77V0z m373.563 122.092l55.73 55.769-83.496 83.535-55.729-55.69 83.495-83.614zM1024 472.615v78.77H905.846v-78.77H1024zM0 551.385v-78.77h118.154v78.77H0z m122.092-373.563l55.769-55.73 83.535 83.496-55.69 55.729-83.614-83.495z" p-id="3055"></path></svg>